<svg width="745" height="153" viewBox="0 0 745 153" fill="none" xmlns="http://www.w3.org/2000/svg">
<mask id="path-1-outside-1_0_40" maskUnits="userSpaceOnUse" x="0" y="0" width="745" height="153" fill="black">
<rect fill="white" width="745" height="153"/>
<path fill-rule="evenodd" clip-rule="evenodd" d="M35 4C17.8792 4 4 17.8792 4 35V61C4 78.1208 17.8792 92 35 92H73.1881C77.826 93.588 86.2246 98.2064 86.2246 105.363C86.2246 108.824 84.5223 113.337 82.7004 118.166C79.6443 126.266 76.252 135.258 79.995 141.677C85.4641 151.055 96.1202 150.44 103.09 144.715C108.135 140.571 106.291 137.131 103.4 131.741C100.786 126.865 97.3162 120.393 97.3162 110.363C97.3162 96.3138 100.611 92.7868 106.059 92H308.005C310.827 92.5995 312.515 94.8188 312.515 102.428C312.515 108.172 310.528 111.878 309.031 114.671C307.376 117.758 306.319 119.728 309.209 122.101C313.2 125.379 319.303 125.732 322.435 120.361C324.578 116.685 322.635 111.536 320.885 106.897C319.842 104.131 318.867 101.547 318.867 99.5648C318.867 95.5911 323.388 92.9839 326.084 92H622.716C627.354 93.588 635.753 98.2064 635.753 105.363C635.753 108.824 634.051 113.336 632.229 118.165L632.229 118.166C629.173 126.266 625.78 135.258 629.523 141.677C634.992 151.055 645.648 150.44 652.618 144.715C657.664 140.571 655.819 137.131 652.929 131.741C650.314 126.865 646.845 120.393 646.845 110.363C646.845 96.3138 650.139 92.7868 655.588 92H710C727.121 92 741 78.1208 741 61V35C741 17.8792 727.121 4 710 4H35Z"/>
</mask>
<path fill-rule="evenodd" clip-rule="evenodd" d="M35 4C17.8792 4 4 17.8792 4 35V61C4 78.1208 17.8792 92 35 92H73.1881C77.826 93.588 86.2246 98.2064 86.2246 105.363C86.2246 108.824 84.5223 113.337 82.7004 118.166C79.6443 126.266 76.252 135.258 79.995 141.677C85.4641 151.055 96.1202 150.44 103.09 144.715C108.135 140.571 106.291 137.131 103.4 131.741C100.786 126.865 97.3162 120.393 97.3162 110.363C97.3162 96.3138 100.611 92.7868 106.059 92H308.005C310.827 92.5995 312.515 94.8188 312.515 102.428C312.515 108.172 310.528 111.878 309.031 114.671C307.376 117.758 306.319 119.728 309.209 122.101C313.2 125.379 319.303 125.732 322.435 120.361C324.578 116.685 322.635 111.536 320.885 106.897C319.842 104.131 318.867 101.547 318.867 99.5648C318.867 95.5911 323.388 92.9839 326.084 92H622.716C627.354 93.588 635.753 98.2064 635.753 105.363C635.753 108.824 634.051 113.336 632.229 118.165L632.229 118.166C629.173 126.266 625.78 135.258 629.523 141.677C634.992 151.055 645.648 150.44 652.618 144.715C657.664 140.571 655.819 137.131 652.929 131.741C650.314 126.865 646.845 120.393 646.845 110.363C646.845 96.3138 650.139 92.7868 655.588 92H710C727.121 92 741 78.1208 741 61V35C741 17.8792 727.121 4 710 4H35Z" fill="#FF8000"/>
<path d="M73.1881 92L74.4839 88.2157L73.854 88H73.1881V92ZM82.7004 118.166L86.4429 119.578L82.7004 118.166ZM79.995 141.677L83.4503 139.661L79.995 141.677ZM103.09 144.715L100.551 141.624L103.09 144.715ZM103.4 131.741L106.926 129.85L103.4 131.741ZM106.059 92V88H105.772L105.487 88.0411L106.059 92ZM308.005 92L308.836 88.0873L308.425 88H308.005V92ZM309.031 114.671L305.506 112.781L305.506 112.781L309.031 114.671ZM309.209 122.101L311.747 119.01L309.209 122.101ZM322.435 120.361L318.979 118.346V118.346L322.435 120.361ZM320.885 106.897L324.628 105.485V105.485L320.885 106.897ZM326.084 92V88H325.377L324.713 88.2424L326.084 92ZM622.716 92L624.012 88.2157L623.382 88H622.716V92ZM632.229 118.165L628.486 116.753L628.468 116.802L628.451 116.851L632.229 118.165ZM632.229 118.166L635.971 119.578L635.99 119.529L636.007 119.48L632.229 118.166ZM629.523 141.677L626.068 143.692H626.068L629.523 141.677ZM652.618 144.715L655.157 147.806H655.157L652.618 144.715ZM652.929 131.741L656.454 129.85V129.85L652.929 131.741ZM655.588 92V88H655.3L655.016 88.0411L655.588 92ZM8 35C8 20.0883 20.0883 8 35 8V0C15.67 0 0 15.67 0 35H8ZM8 61V35H0V61H8ZM35 88C20.0883 88 8 75.9117 8 61H0C0 80.33 15.67 96 35 96V88ZM73.1881 88H35V96H73.1881V88ZM90.2246 105.363C90.2246 100.103 87.1326 96.1429 84.0163 93.5287C80.8672 90.8871 77.1385 89.1246 74.4839 88.2157L71.8924 95.7843C73.8756 96.4634 76.6651 97.8041 78.8748 99.6578C81.1173 101.539 82.2246 103.467 82.2246 105.363H90.2246ZM86.4429 119.578C87.342 117.195 88.2751 114.726 88.9751 112.407C89.6667 110.116 90.2246 107.679 90.2246 105.363H82.2246C82.2246 106.508 81.9313 108.058 81.3164 110.096C80.7096 112.106 79.8807 114.308 78.9579 116.754L86.4429 119.578ZM83.4503 139.661C82.2803 137.655 82.0443 134.941 82.7294 131.29C83.4148 127.637 84.8862 123.704 86.4429 119.578L78.9579 116.754C77.4585 120.728 75.7057 125.342 74.8666 129.814C74.0273 134.288 73.9666 139.28 76.5396 143.692L83.4503 139.661ZM100.551 141.624C97.7395 143.933 94.3194 145.089 91.2662 144.87C88.3696 144.662 85.5219 143.214 83.4503 139.661L76.5396 143.692C79.9372 149.518 85.1521 152.451 90.6932 152.849C96.0778 153.236 101.471 151.221 105.629 147.806L100.551 141.624ZM99.8752 133.631C101.465 136.595 102.139 138.002 102.238 139.068C102.271 139.411 102.227 139.645 102.091 139.919C101.925 140.252 101.527 140.823 100.551 141.624L105.629 147.806C107.175 146.536 108.439 145.123 109.256 143.477C110.103 141.772 110.363 140.032 110.204 138.323C109.92 135.285 108.226 132.276 106.926 129.85L99.8752 133.631ZM93.3162 110.363C93.3162 121.439 97.205 128.651 99.8752 133.631L106.926 129.85C104.367 125.079 101.316 119.348 101.316 110.363H93.3162ZM105.487 88.0411C101.86 88.5649 98.3971 90.1753 96.1395 94.2806C94.1256 97.9429 93.3162 103.195 93.3162 110.363H101.316C101.316 103.481 102.154 99.9457 103.15 98.1355C103.901 96.7684 104.81 96.2219 106.631 95.9589L105.487 88.0411ZM308.005 88H106.059V96H308.005V88ZM307.174 95.9127C307.322 95.9442 307.411 95.9754 307.459 95.9957C307.504 96.0145 307.519 96.0259 307.519 96.0264C307.521 96.0276 307.524 96.03 307.529 96.035C307.535 96.0401 307.545 96.0509 307.561 96.07C307.591 96.1074 307.65 96.1902 307.727 96.3456C308.086 97.08 308.515 98.7789 308.515 102.428H316.515C316.515 98.468 316.1 95.2526 314.91 92.8251C313.532 90.0129 311.303 88.6112 308.836 88.0873L307.174 95.9127ZM308.515 102.428C308.515 107.127 306.947 110.092 305.506 112.781L312.556 116.561C314.109 113.665 316.515 109.218 316.515 102.428H308.515ZM305.506 112.781C304.822 114.055 303.635 116.12 303.433 118.281C303.314 119.552 303.51 120.87 304.147 122.152C304.754 123.375 305.662 124.365 306.67 125.192L311.747 119.01C311.31 118.651 311.267 118.504 311.312 118.594C311.386 118.743 311.407 118.931 311.398 119.026C311.397 119.041 311.412 118.875 311.619 118.402C311.829 117.922 312.122 117.371 312.556 116.561L305.506 112.781ZM306.67 125.192C309.339 127.384 312.849 128.721 316.43 128.464C320.169 128.196 323.661 126.198 325.89 122.376L318.979 118.346C318.076 119.894 316.951 120.406 315.857 120.485C314.607 120.574 313.07 120.096 311.747 119.01L306.67 125.192ZM325.89 122.376C327.663 119.335 327.565 115.99 327.051 113.253C326.538 110.516 325.474 107.728 324.628 105.485L317.143 108.309C318.047 110.704 318.829 112.811 319.189 114.728C319.548 116.643 319.35 117.711 318.979 118.346L325.89 122.376ZM324.628 105.485C324.094 104.071 323.642 102.866 323.314 101.781C322.978 100.669 322.867 99.9701 322.867 99.5648H314.867C314.867 101.142 315.243 102.726 315.656 104.093C316.076 105.487 316.633 106.957 317.143 108.309L324.628 105.485ZM322.867 99.5648C322.867 99.2091 323.061 98.5711 324.084 97.6842C325.085 96.8174 326.423 96.1345 327.456 95.7576L324.713 88.2424C323.05 88.8494 320.78 89.962 318.845 91.6383C316.934 93.2944 314.867 95.9469 314.867 99.5648H322.867ZM622.716 88H326.084V96H622.716V88ZM639.753 105.363C639.753 100.103 636.661 96.1429 633.545 93.5287C630.396 90.8871 626.667 89.1246 624.012 88.2157L621.421 95.7843C623.404 96.4634 626.193 97.8041 628.403 99.6578C630.646 101.539 631.753 103.467 631.753 105.363H639.753ZM635.971 119.577C636.87 117.194 637.804 114.726 638.503 112.407C639.195 110.116 639.753 107.679 639.753 105.363H631.753C631.753 106.508 631.46 108.058 630.845 110.095C630.238 112.105 629.409 114.307 628.486 116.753L635.971 119.577ZM636.007 119.48L636.007 119.479L628.451 116.851L628.451 116.852L636.007 119.48ZM632.979 139.661C631.809 137.655 631.573 134.941 632.258 131.29C632.943 127.637 634.414 123.704 635.971 119.578L628.486 116.754C626.987 120.728 625.234 125.342 624.395 129.814C623.556 134.288 623.495 139.28 626.068 143.692L632.979 139.661ZM650.08 141.624C647.268 143.933 643.848 145.089 640.794 144.87C637.898 144.662 635.05 143.214 632.979 139.661L626.068 143.692C629.466 149.518 634.68 152.451 640.222 152.849C645.606 153.236 650.999 151.221 655.157 147.806L650.08 141.624ZM649.404 133.631C650.993 136.595 651.667 138.002 651.767 139.068C651.799 139.411 651.755 139.645 651.619 139.919C651.454 140.252 651.056 140.823 650.08 141.624L655.157 147.806C656.704 146.536 657.967 145.123 658.784 143.477C659.631 141.772 659.892 140.032 659.732 138.323C659.448 135.285 657.755 132.276 656.454 129.85L649.404 133.631ZM642.845 110.363C642.845 121.439 646.733 128.651 649.404 133.631L656.454 129.85C653.895 125.079 650.845 119.348 650.845 110.363H642.845ZM655.016 88.0411C651.389 88.5649 647.925 90.1753 645.668 94.2806C643.654 97.943 642.845 103.195 642.845 110.363H650.845C650.845 103.481 651.682 99.9457 652.678 98.1355C653.43 96.7684 654.338 96.2219 656.159 95.9589L655.016 88.0411ZM710 88H655.588V96H710V88ZM737 61C737 75.9117 724.912 88 710 88V96C729.33 96 745 80.33 745 61H737ZM737 35V61H745V35H737ZM710 8C724.912 8 737 20.0883 737 35H745C745 15.67 729.33 0 710 0V8ZM35 8H710V0H35V8Z" fill="black" mask="url(#path-1-outside-1_0_40)"/>
<path d="M73.1881 92L74.4839 88.2157L73.854 88H73.1881V92ZM82.7004 118.166L86.4429 119.578L82.7004 118.166ZM79.995 141.677L83.4503 139.661L79.995 141.677ZM103.09 144.715L100.551 141.624L103.09 144.715ZM103.4 131.741L106.926 129.85L103.4 131.741ZM106.059 92V88H105.772L105.487 88.0411L106.059 92ZM308.005 92L308.836 88.0873L308.425 88H308.005V92ZM309.031 114.671L305.506 112.781L305.506 112.781L309.031 114.671ZM309.209 122.101L311.747 119.01L309.209 122.101ZM322.435 120.361L318.979 118.346V118.346L322.435 120.361ZM320.885 106.897L324.628 105.485V105.485L320.885 106.897ZM326.084 92V88H325.377L324.713 88.2424L326.084 92ZM622.716 92L624.012 88.2157L623.382 88H622.716V92ZM632.229 118.165L628.486 116.753L628.468 116.802L628.451 116.851L632.229 118.165ZM632.229 118.166L635.971 119.578L635.99 119.529L636.007 119.48L632.229 118.166ZM629.523 141.677L626.068 143.692H626.068L629.523 141.677ZM652.618 144.715L655.157 147.806H655.157L652.618 144.715ZM652.929 131.741L656.454 129.85V129.85L652.929 131.741ZM655.588 92V88H655.3L655.016 88.0411L655.588 92ZM8 35C8 20.0883 20.0883 8 35 8V0C15.67 0 0 15.67 0 35H8ZM8 61V35H0V61H8ZM35 88C20.0883 88 8 75.9117 8 61H0C0 80.33 15.67 96 35 96V88ZM73.1881 88H35V96H73.1881V88ZM90.2246 105.363C90.2246 100.103 87.1326 96.1429 84.0163 93.5287C80.8672 90.8871 77.1385 89.1246 74.4839 88.2157L71.8924 95.7843C73.8756 96.4634 76.6651 97.8041 78.8748 99.6578C81.1173 101.539 82.2246 103.467 82.2246 105.363H90.2246ZM86.4429 119.578C87.342 117.195 88.2751 114.726 88.9751 112.407C89.6667 110.116 90.2246 107.679 90.2246 105.363H82.2246C82.2246 106.508 81.9313 108.058 81.3164 110.096C80.7096 112.106 79.8807 114.308 78.9579 116.754L86.4429 119.578ZM83.4503 139.661C82.2803 137.655 82.0443 134.941 82.7294 131.29C83.4148 127.637 84.8862 123.704 86.4429 119.578L78.9579 116.754C77.4585 120.728 75.7057 125.342 74.8666 129.814C74.0273 134.288 73.9666 139.28 76.5396 143.692L83.4503 139.661ZM100.551 141.624C97.7395 143.933 94.3194 145.089 91.2662 144.87C88.3696 144.662 85.5219 143.214 83.4503 139.661L76.5396 143.692C79.9372 149.518 85.1521 152.451 90.6932 152.849C96.0778 153.236 101.471 151.221 105.629 147.806L100.551 141.624ZM99.8752 133.631C101.465 136.595 102.139 138.002 102.238 139.068C102.271 139.411 102.227 139.645 102.091 139.919C101.925 140.252 101.527 140.823 100.551 141.624L105.629 147.806C107.175 146.536 108.439 145.123 109.256 143.477C110.103 141.772 110.363 140.032 110.204 138.323C109.92 135.285 108.226 132.276 106.926 129.85L99.8752 133.631ZM93.3162 110.363C93.3162 121.439 97.205 128.651 99.8752 133.631L106.926 129.85C104.367 125.079 101.316 119.348 101.316 110.363H93.3162ZM105.487 88.0411C101.86 88.5649 98.3971 90.1753 96.1395 94.2806C94.1256 97.9429 93.3162 103.195 93.3162 110.363H101.316C101.316 103.481 102.154 99.9457 103.15 98.1355C103.901 96.7684 104.81 96.2219 106.631 95.9589L105.487 88.0411ZM308.005 88H106.059V96H308.005V88ZM307.174 95.9127C307.322 95.9442 307.411 95.9754 307.459 95.9957C307.504 96.0145 307.519 96.0259 307.519 96.0264C307.521 96.0276 307.524 96.03 307.529 96.035C307.535 96.0401 307.545 96.0509 307.561 96.07C307.591 96.1074 307.65 96.1902 307.727 96.3456C308.086 97.08 308.515 98.7789 308.515 102.428H316.515C316.515 98.468 316.1 95.2526 314.91 92.8251C313.532 90.0129 311.303 88.6112 308.836 88.0873L307.174 95.9127ZM308.515 102.428C308.515 107.127 306.947 110.092 305.506 112.781L312.556 116.561C314.109 113.665 316.515 109.218 316.515 102.428H308.515ZM305.506 112.781C304.822 114.055 303.635 116.12 303.433 118.281C303.314 119.552 303.51 120.87 304.147 122.152C304.754 123.375 305.662 124.365 306.67 125.192L311.747 119.01C311.31 118.651 311.267 118.504 311.312 118.594C311.386 118.743 311.407 118.931 311.398 119.026C311.397 119.041 311.412 118.875 311.619 118.402C311.829 117.922 312.122 117.371 312.556 116.561L305.506 112.781ZM306.67 125.192C309.339 127.384 312.849 128.721 316.43 128.464C320.169 128.196 323.661 126.198 325.89 122.376L318.979 118.346C318.076 119.894 316.951 120.406 315.857 120.485C314.607 120.574 313.07 120.096 311.747 119.01L306.67 125.192ZM325.89 122.376C327.663 119.335 327.565 115.99 327.051 113.253C326.538 110.516 325.474 107.728 324.628 105.485L317.143 108.309C318.047 110.704 318.829 112.811 319.189 114.728C319.548 116.643 319.35 117.711 318.979 118.346L325.89 122.376ZM324.628 105.485C324.094 104.071 323.642 102.866 323.314 101.781C322.978 100.669 322.867 99.9701 322.867 99.5648H314.867C314.867 101.142 315.243 102.726 315.656 104.093C316.076 105.487 316.633 106.957 317.143 108.309L324.628 105.485ZM322.867 99.5648C322.867 99.2091 323.061 98.5711 324.084 97.6842C325.085 96.8174 326.423 96.1345 327.456 95.7576L324.713 88.2424C323.05 88.8494 320.78 89.962 318.845 91.6383C316.934 93.2944 314.867 95.9469 314.867 99.5648H322.867ZM622.716 88H326.084V96H622.716V88ZM639.753 105.363C639.753 100.103 636.661 96.1429 633.545 93.5287C630.396 90.8871 626.667 89.1246 624.012 88.2157L621.421 95.7843C623.404 96.4634 626.193 97.8041 628.403 99.6578C630.646 101.539 631.753 103.467 631.753 105.363H639.753ZM635.971 119.577C636.87 117.194 637.804 114.726 638.503 112.407C639.195 110.116 639.753 107.679 639.753 105.363H631.753C631.753 106.508 631.46 108.058 630.845 110.095C630.238 112.105 629.409 114.307 628.486 116.753L635.971 119.577ZM636.007 119.48L636.007 119.479L628.451 116.851L628.451 116.852L636.007 119.48ZM632.979 139.661C631.809 137.655 631.573 134.941 632.258 131.29C632.943 127.637 634.414 123.704 635.971 119.578L628.486 116.754C626.987 120.728 625.234 125.342 624.395 129.814C623.556 134.288 623.495 139.28 626.068 143.692L632.979 139.661ZM650.08 141.624C647.268 143.933 643.848 145.089 640.794 144.87C637.898 144.662 635.05 143.214 632.979 139.661L626.068 143.692C629.466 149.518 634.68 152.451 640.222 152.849C645.606 153.236 650.999 151.221 655.157 147.806L650.08 141.624ZM649.404 133.631C650.993 136.595 651.667 138.002 651.767 139.068C651.799 139.411 651.755 139.645 651.619 139.919C651.454 140.252 651.056 140.823 650.08 141.624L655.157 147.806C656.704 146.536 657.967 145.123 658.784 143.477C659.631 141.772 659.892 140.032 659.732 138.323C659.448 135.285 657.755 132.276 656.454 129.85L649.404 133.631ZM642.845 110.363C642.845 121.439 646.733 128.651 649.404 133.631L656.454 129.85C653.895 125.079 650.845 119.348 650.845 110.363H642.845ZM655.016 88.0411C651.389 88.5649 647.925 90.1753 645.668 94.2806C643.654 97.943 642.845 103.195 642.845 110.363H650.845C650.845 103.481 651.682 99.9457 652.678 98.1355C653.43 96.7684 654.338 96.2219 656.159 95.9589L655.016 88.0411ZM710 88H655.588V96H710V88ZM737 61C737 75.9117 724.912 88 710 88V96C729.33 96 745 80.33 745 61H737ZM737 35V61H745V35H737ZM710 8C724.912 8 737 20.0883 737 35H745C745 15.67 729.33 0 710 0V8ZM35 8H710V0H35V8Z" fill="url(#paint0_linear_0_40)" mask="url(#path-1-outside-1_0_40)"/>
<defs>
<linearGradient id="paint0_linear_0_40" x1="372.313" y1="3.67065" x2="372.313" y2="148.896" gradientUnits="userSpaceOnUse">
<stop stop-color="#FFCC00"/>
<stop offset="1" stop-color="#FF8000"/>
</linearGradient>
</defs>
</svg>
