<svg width="109" height="126" viewBox="0 0 109 126" fill="none" xmlns="http://www.w3.org/2000/svg">
<path d="M57.9235 10.8943L54.5 8.97472L51.0765 10.8943L30.849 22.236L30.8007 22.263L30.7529 22.2909L10.7102 33.9492L7.2621 35.9549L7.23005 39.9438L7.04522 62.9438L7.04477 63L7.04522 63.0562L7.23005 86.0563L7.2621 90.0451L10.7102 92.0508L30.7529 103.709L30.8007 103.737L30.849 103.764L51.0765 115.106L54.5 117.025L57.9235 115.106L78.151 103.764L78.1993 103.737L78.2471 103.709L98.2898 92.0508L101.738 90.0451L101.77 86.0563L101.955 63.0562L101.955 63L101.955 62.9438L101.77 39.9438L101.738 35.9549L98.2898 33.9492L78.2471 22.2909L78.1993 22.263L78.151 22.236L57.9235 10.8943Z" fill="#FF8000" stroke="#FFCC00" stroke-width="14"/>
<path fill-rule="evenodd" clip-rule="evenodd" d="M54.1644 40.2975C51.6616 40.3917 46.1305 41.6326 41.7099 46.0533C40.7495 45.6418 38.582 44.4894 37.5943 43.1724C38.6918 46.1905 43.0268 53.1321 51.5873 56.7539C51.7856 56.3335 52.605 55.5047 54.3163 55.4581C56.0276 55.5047 56.847 56.3335 57.0453 56.7539C65.6058 53.1321 69.9408 46.1905 71.0383 43.1724C70.0506 44.4894 67.883 45.6418 66.9227 46.0533C62.5021 41.6326 56.971 40.3917 54.4682 40.2975V40.2915C54.4191 40.2915 54.3684 40.292 54.3163 40.2931C54.2642 40.292 54.2135 40.2915 54.1644 40.2915V40.2975ZM42.0558 53.5415C41.2387 52.9287 39.8215 50.9668 39.2151 50.0624C36.8577 52.4198 36.6016 57.0666 36.7682 59.0953C36.7682 74.41 33.9058 81.5643 32.4746 83.2272L38.5379 78.5946L42.6432 85.374L47.4177 81.2227L54.295 92.6884V92.756L54.3153 92.7222L54.3356 92.756V92.6884L61.213 81.2227L65.9874 85.374L70.0928 78.5946L76.1561 83.2272C74.7249 81.5643 71.8625 74.41 71.8625 59.0953C72.0291 57.0666 71.773 52.4198 69.4156 50.0624C68.8092 50.9668 67.392 52.9287 66.5749 53.5415C67.8836 56.595 68.6052 62.7021 61.0215 62.7021L61.213 65.3513L66.8306 68.5431C64.1881 69.3445 58.4369 73.0025 56.5726 81.2227L54.3153 88.8867L52.0581 81.2227C50.1937 73.0025 44.4426 69.3445 41.8001 68.5431L47.4177 65.3513L47.6092 62.7021C40.0255 62.7021 40.747 56.595 42.0558 53.5415ZM44.3855 55.5843C45.6838 56.5631 48.6057 58.6357 49.9078 59.0953C47.4286 59.872 42.8533 60.2571 44.3855 55.5843ZM64.2451 55.5843C62.9469 56.5631 60.025 58.6357 58.7229 59.0953C61.2021 59.872 65.7774 60.2571 64.2451 55.5843ZM54.4897 58.6131C54.491 58.6127 54.4923 58.6123 54.4936 58.6119V58.6142C55.7868 58.9846 58.3578 60.475 58.3578 63.4963V66.7966L61.2621 68.6007C59.0577 69.9749 54.7022 74.0061 54.4936 79.3364V79.7336C54.4936 79.6396 54.4923 79.546 54.4897 79.4528C54.4871 79.546 54.4858 79.6396 54.4858 79.7336V79.3364C54.2772 74.0061 49.9217 69.9749 47.7173 68.6007L50.6216 66.7966V63.4963C50.6216 60.475 53.1926 58.9846 54.4858 58.6142V58.6119C54.4871 58.6123 54.4884 58.6127 54.4897 58.6131Z" fill="white"/>
</svg>
