<svg width="110" height="126" viewBox="0 0 110 126" fill="none" xmlns="http://www.w3.org/2000/svg">
<path d="M58.4517 10.9102L55 8.95377L51.5483 10.9102L31.5383 22.2519L31.4899 22.2793L31.4419 22.3075L11.6148 33.9658L8.19459 35.9769L8.16305 39.9444L7.98022 62.9444L7.97978 63L7.98022 63.0556L8.16305 86.0556L8.19459 90.0231L11.6148 92.0342L31.4419 103.693L31.4899 103.721L31.5383 103.748L51.5483 115.09L55 117.046L58.4517 115.09L78.4617 103.748L78.5101 103.721L78.5581 103.693L98.3853 92.0342L101.805 90.0231L101.837 86.0556L102.02 63.0556L102.02 63L102.02 62.9444L101.837 39.9444L101.805 35.9769L98.3853 33.9658L78.5581 22.3075L78.5101 22.2793L78.4617 22.2519L58.4517 10.9102Z" fill="#FF8000" stroke="#FFCC00" stroke-width="14"/>
<path fill-rule="evenodd" clip-rule="evenodd" d="M72.4423 45.2394C72.9833 45.0274 73.5755 44.9543 74.1571 45.0277C74.7387 45.1011 75.2886 45.3183 75.7495 45.6567C76.2104 45.9951 76.5655 46.4424 76.7777 46.9519C76.99 47.4615 77.0517 48.0147 76.9565 48.554L71.9914 76.5968C71.5098 79.3018 68.3223 80.8531 65.6581 79.5057C63.4295 78.3784 60.1194 76.6416 57.1421 74.8295C55.6535 73.9224 51.0934 71.0176 51.6538 68.9506C52.1354 67.1833 59.7976 60.542 64.176 56.5936C65.8945 55.0423 65.1108 54.1474 63.0814 55.5743C58.0419 59.1172 49.9506 64.5048 47.2754 66.0214C44.9155 67.3586 43.6852 67.5869 42.214 67.3586C39.5301 66.9427 37.041 66.2986 35.0094 65.5138C32.2642 64.4538 32.3977 60.9395 35.0072 59.9162L72.4423 45.2394Z" fill="white"/>
</svg>
