<svg width="109" height="126" viewBox="0 0 109 126" fill="none" xmlns="http://www.w3.org/2000/svg">
<path d="M57.9235 10.8943L54.5 8.97472L51.0765 10.8943L30.849 22.236L30.8007 22.263L30.7529 22.2909L10.7102 33.9492L7.2621 35.9549L7.23005 39.9438L7.04522 62.9438L7.04477 63L7.04522 63.0562L7.23005 86.0563L7.2621 90.0451L10.7102 92.0508L30.7529 103.709L30.8007 103.737L30.849 103.764L51.0765 115.106L54.5 117.025L57.9235 115.106L78.151 103.764L78.1993 103.737L78.2471 103.709L98.2898 92.0508L101.738 90.0451L101.77 86.0563L101.955 63.0562L101.955 63L101.955 62.9438L101.77 39.9438L101.738 35.9549L98.2898 33.9492L78.2471 22.2909L78.1993 22.263L78.151 22.236L57.9235 10.8943Z" fill="#FF8000" stroke="#FFCC00" stroke-width="14"/>
<path d="M45.9545 43H31L48.6464 65.03L31.9614 83H37.6227L51.2698 68.302L63.0455 83H78L59.6102 60.044L75.4364 43H69.775L56.9867 56.772L45.9545 43ZM65.1818 79L39.5455 47H43.8182L69.4545 79H65.1818Z" fill="white"/>
</svg>
